<svg width="61.105mm" height="17.093mm" version="1.1" viewBox="0 0 61.105 17.093" xmlns="http://www.w3.org/2000/svg">
 <defs>
  <clipPath id="clipPath1686">
   <path d="m131.18 154.5v.73668l.62464.36063h1.9739l.39632-.22881v-.84651l-.51336-.51336h-2.203z" display="none" fill="none" stroke="#000" stroke-width=".26458px"/>
   <path class="powerclip" d="m109.54 139.68h71.105v27.093h-71.105zm21.637 14.819v.73668l.62464.36063h1.9739l.39632-.22881v-.84651l-.51336-.51336h-2.203z" fill="none" stroke="#000" stroke-width=".26458px"/>
  </clipPath>
 </defs>
 <g transform="translate(-114.54 -144.68)">
  <path d="m114.68 149.49v8.1039l.24434.48868.40723.16289.57012-.0814.40723-.44795.0815-.28506h.65156l5.3754-2.1176v-1.7511l1.8325-.85518v.65157h.93663l.28506.40723h1.4253l.36651-.32579.44796.20362.16289.61084-.16289.89591-2.7284 3.7058-.77374-.0407-.3836 1.4316 4.2116 1.3782.89591-.40723.12216-1.2217-.5294-.5294-.0814-.69229 1.8325-3.0542h.32579l1.0588.48868h2.2398l.73302-.48868v2.199h.57012v2.199l1.0181 1.0181h1.3031v-.20361h2.8099v.28506h1.0995v-3.5022h1.181v-.28506h1.4253v-2.9321h10.262l.14053-.52448h3.3616v.52448l1.0286.27561v-1.1715l.24224-.41957v-1.0872h10.213v.36651h4.5202l.11272-.42067h1.5976v-1.3304h-1.1402l-.44176.25505-.27888-.48302h-4.4105v.30941h-10.344v-.61084l-.40723-.40723h-3.2578l-1.1402-1.1402h-15.068l-.45447-.78718v-.5974h7.3367v-2.4434h-16.045v2.4434h3.6651v.85519l-.52939.52939h-4.6017l-.71227 1.2337h-4.4596l-.12044-.44949h-6.9654l-.44629-.25766h-.61251z" clip-path="url(#clipPath1686)" fill="#fff" stroke="#fff" stroke-width=".26458px"/>
 </g>
</svg>
