<svg width="58.863mm" height="17.996mm" version="1.1" viewBox="0 0 58.863 17.996" xmlns="http://www.w3.org/2000/svg">
 <defs>
  <clipPath id="clipPath4686">
   <path d="m49.399 152.16v.79842l.58498.46641 1.9131-.0158.70356-.4664v-.6759l-.59684-.42687h-2.0791z" display="none" fill="none" stroke="#000" stroke-width=".26458px"/>
   <path class="powerclip" d="m26.528 137.56h68.863v27.996h-68.863zm22.871 14.598v.79842l.58498.46641 1.9131-.0158.70356-.4664v-.6759l-.59684-.42687h-2.0791z" fill="none" stroke="#000" stroke-width=".26458px"/>
  </clipPath>
 </defs>
 <g transform="translate(-31.528 -142.56)">
  <path d="m31.661 147.66v7.8852l.32021.72048.52034.1601.48031-.12008.40026-.44029.36024-.44028v-.7605h.52034v-3.8025h7.605l.14402.24945h1.2569l.25553.25553h1.1854l.21246-.21246h.50801l.40026.3479.08005.32022-.04003.60039-3.082 4.0827.04003.56037 2.2815.72047 1.2808-.04.1601-.68045-.12544-.46815 1.8065-3.0141h.64042l.48032.32021 1.2408.12008h1.601l.80052-.52034v2.4816h.64042v3.4823l.94062.94061h1.461v-.38025h2.9619v.40026h1.1608v-4.7231h.96063v-.56037h1.561v-1.561l.21602-.37417v-1.3069h10.711v-.40027h3.6024v.92061h1.481v-2.6417h9.8064l.56037-.56037h1.2008v-1.1207h-11.608l-.47672-.8257h-3.5259l-.76792-.76792h-16.884v-.888l-.35684-.20602.07103-.26508h3.2077v-2.4508h-8.3655l-.21603.37417h-1.425v2.0674h1.561l.12544.46816-.72923.72923h-4.6396l-1.1424 1.1424h-2.7401l-.55564.3208h-8.05v-.85946h-.64042l-.34415-.19869h-.77659z" clip-path="url(#clipPath4686)" fill="#fff" stroke="#fffff6" stroke-width=".26458px"/>
 </g>
</svg>
