<svg width="41.607in" height="4.1321in" version="1.1" viewBox="0 0 1056.8 104.95" xmlns="http://www.w3.org/2000/svg">
 <g transform="translate(421.11 -16.464)">
  <path d="m68.4 31.025 38.931-13.698 40.373 13.698-.86514 39.94 10.958 11.968-16.726 20.619-10.526-4.4699-4.614 16.437-17.735 5.0466-18.312-5.9117-4.0373-15.14-9.8048 4.1814-19.465-19.177 12.977-13.265z" fill="#fff" stroke="#fff" stroke-width="1.6313px"/>
  <g stroke="#000">
   <ellipse cx="86.352" cy="76.589" rx="5.6955" ry="5.7675" fill="#010000" stroke-width="10.79"/>
   <ellipse cx="129.82" cy="76.733" rx="5.6955" ry="5.7675" fill="#010000" stroke-width="10.79"/>
   <path d="m103.01 98.938 5.0466-9.3723 5.4792 9.0839-5.0466-3.4606z" fill="none" stroke-width="1.6313px"/>
   <path d="m107.83 88.149c-.33833.0103-.54655.4487-4.416 7.6404l-1.5357 2.8516.74238.64678c.40759.35614.77004.64989.80609.65316.036.003 1.187-.74771 2.5553-1.6695l2.4852-1.6759 2.3227 1.558 2.3195 1.5612.73281-.73599.736-.736-.40464-.69778c-.22361-.38385-1.5998-2.6569-3.0587-5.0532-2.6242-4.3105-2.6597-4.357-3.1224-4.3395-.005.00019-.008-8e-5-.0127 0-.0577.00094-.10522-.005-.14976-.003z" stroke-width=".95369"/>
  </g>
 </g>
 <g transform="translate(476.53)" fill="#fff" stroke-width="1.676px">
  <path d="m102.47 11.862h475.97l-28.827 32.758h-448.13z" stroke="#fff"/>
  <path d="m104.77 52.81h436.99l-10.155 13.431h-415.7z" stroke="#fff"/>
  <path d="m109.35 73.775-10.155 12.12h118.26l11.138-12.448z" stroke="#fdffff"/>
  <g stroke="#fff">
   <path d="m240.71 74.102-11.793 12.12h152.98l11.465-12.448z"/>
   <path d="m1.2956 12.93h-475.97l28.827 32.758h448.13z"/>
   <path d="m-.99749 53.877h-436.99l10.155 13.431h415.7z"/>
  </g>
  <path d="m-5.5836 74.842 10.155 12.12h-118.26l-11.138-12.448z" stroke="#fdffff"/>
  <path d="m-136.94 75.17 11.793 12.12h-152.98l-11.465-12.448z" stroke="#fff"/>
 </g>
</svg>
