<svg width="215.49" height="100.49" version="1.1" viewBox="0 0 57.016 26.588" xmlns="http://www.w3.org/2000/svg">
 <defs>
  <clipPath id="clipPath1817">
   <path d="m48.126 101.97-2.5518 6.6856v.7145l.30621.8676.81657.61243 1.0207.1531 4.7973-7.0429.10207-.40829-.10207-.45932-1.1738-1.1228z" display="none" fill="none" stroke="#000" stroke-width=".26458px"/>
   <path class="powerclip" d="m14.006 81.832h67.016v36.588h-67.016zm34.121 20.137-2.5518 6.6856v.7145l.30621.8676.81657.61243 1.0207.1531 4.7973-7.0429.10207-.40829-.10207-.45932-1.1738-1.1228z" fill="none" stroke="#000" stroke-width=".26458px"/>
  </clipPath>
 </defs>
 <g transform="translate(-19.414 -87.189)">
  <g transform="translate(.40828 .35725)" clip-path="url(#clipPath1817)" fill="#fff">
   <path d="m19.138 92.782v11.381h1.1228l.14126.5272h1.1857l1.48-1.8541h8.1146l.10207-.30621.25518-.20414v-1.5311h.45932v2.6538h.61242l.20414 3.4704 1.2759 6.3284 5.6649-1.8373-.61243-1.0717-.56139-2.0414-.40828-2.6028-.20414-1.6842v-1.378h.56139v-.81657h4.8994l.35725.35725.10207.66346-.15311.91864-2.5007 5.4608 8.625 4.0318.91864-1.0207v-.86761l5.5629-7.4512v-.66346h1.0207l1.1228-1.2759h.45932v.61242h6.5325v.20415h-.30621v.76553l.40828.1531.06721.25085-.73067.31054v1.1738l.30621.1531v.61243h5.767l.3103-.53746h.76144v-1.4529h-.81656v-.51036h.81656v-.81656h-.56139v-.30622h1.5821v-.56139l.59191-.34174v-4.8128h2.215v-1.8883h-2.2966v-1.0207l.39461-.22783v-1.9157h-2.2829v-.51036h-13.32v-.91864h.76553v-3.4194h-11.432v3.5725h1.7862v.30621h1.5311v.91864h-4.5422l-2.9183.78196h-13.005l.08408-.31378h-6.8718l-.14839.5538z" color="#000000" stroke-width=".26458px" style="-inkscape-stroke:none"/>
   <path d="m47.586 86.832v3.8379h1.7852v.30469h1.5312v.6543h-4.4258l-2.9199.7832h-12.814l.08398-.31445h-7.1445l-.14844.55274h-4.5273v11.645h1.1543l.14062.52735h1.3516l1.4785-1.8535h8.1465l.12109-.35937.27344-.22071v-1.4609h.19531v2.6543h.61914l.19727 3.3535 1.3086 6.4844 5.9609-1.9336-.68555-1.1992-.55469-2.0176-.4082-2.5938-.20117-1.6738v-1.2383h.56055v-.8164h4.7129l.28711.28906.0918.59961-.14648.88086-2.5469 5.5625 8.832 4.1289 1.0176-1.1309v-.875l5.5625-7.4512v-.57422h.94922l1.123-1.2754h.26758v.61133h6.2246v.92969l.43164.16211.01953.0742-.70508.29882v1.3438l.30664.15235v.66406h5.9746l.31055-.53906h.81641v-1.7168h-.81641v-.24609h.81641v-1.0801h-.56055v-.043h1.582v-.61719l.5918-.34179v-4.7559h2.2148v-2.1542h-2.2969v-.81055l.39453-.22852v-2.125h-2.2812v-.50976h-13.32v-.6543h.76562v-3.6836zm.26367.26367h11.168v3.1562h-.76562v1.1836h13.32v.50976h2.2832v1.707l-.39453.22656v1.2305h2.2969v1.623h-2.2148v4.8691l-.5918.3418v.50586h-1.582v.57031h.56055v.55274h-.81641v.77343h.81641v1.1895h-.70508l-.31055.53711h-5.5586v-.5625l-.30664-.15235v-1.0039l.75586-.32227-.11328-.42773-.38672-.14454v-.54101h.30664v-.46875h-6.5332v-.61328h-.65039l-1.123 1.2773h-1.0938v.75l-5.5625 7.4512v.86133l-.82031.91016-8.416-3.9336 2.4531-5.3574.16016-.95703-.11328-.72851-.42578-.42579h-5.0859v.81641h-.5625v1.5176l.20508 1.6953.41016 2.6113.56836 2.0664.54102.94335-5.3711 1.7422-1.2441-6.1738-.21094-3.5859h-.60547v-2.6543h-.72266v1.5996l-.23633.18945-.08398.25196h-8.084l-1.4805 1.8555h-1.0195l-.14062-.52734h-1.0918v-11.117l4.4648.002.14844-.55469h6.5977l-.08398.31445h13.193l2.918-.78125h4.6582v-1.1836h-1.5312v-.30664h-1.7871z" color="#000000" style="-inkscape-stroke:none"/>
  </g>
 </g>
</svg>
