<svg width="57.258mm" height="20.154mm" version="1.1" viewBox="0 0 57.258 20.154" xmlns="http://www.w3.org/2000/svg">
 <defs>
  <clipPath id="clipPath3592">
   <path d="m162.69 84.658-1.8419 5.1007.0354.70844.60217.8147 1.0981.21253 3.6839-5.6675-.99181-1.1689z" display="none" fill="none" stroke="#000" stroke-width=".26458px"/>
   <path class="powerclip" d="m135.39 67.978h67.258v30.154h-67.258zm27.306 16.68-1.8419 5.1007.0354.70844.60217.8147 1.0981.21253 3.6839-5.6675-.99181-1.1689z" fill="none" stroke="#000" stroke-width=".26458px"/>
  </clipPath>
 </defs>
 <g transform="translate(-140.39 -72.978)">
  <path d="m140.52 77.538v8.1116l.46048.46048.77928.38964h.60217l.38964-.3188.67301-1.0272h5.9154l.17346-.30045h.46413v-1.4352h.35422v2.3024h.42506l.0354 1.6294.28338 1.9128.23562.87936 4.1223-1.1046-.35523-1.2625-.28338-2.4441.51362-.51362v-.72615h3.4536l.35422.28337.14169.53133-.10627.67301-1.9482 4.3923 6.4822 3.0109.77928-.49591.0708-1.0627 4.286-5.9509h.67301l.86783-.86783h5.4372v1.0095l-.63759.4959v.92097l.53132.60217h4.286v-.35422h.53132v-1.5586h.17711v-.67301h.8147v-.42506h8.1116v-3.0817l-.95639-.95639h2.4087v.3188h1.4877v-.28337h2.5149v.24795h1.3814v-.24795h1.0627v-1.5231h-1.0272v-.21253h-1.3814v.21253h-2.7275v-.70844h-.95639v-.3188h-.31879v.99181h-3.8256l-.42506-.42506h-4.7819v-1.9482h-12.114v-.85012h3.1171v-2.7275h-10.024v2.5504h1.594v1.0272h-4.7465v.60217l-.37303.21537h-9.12l-1.6603-.44487h-4.6802l-1.0754.28816h-1.9709z" clip-path="url(#clipPath3592)" fill="#fff" stroke="#fff" stroke-width=".26458px"/>
 </g>
</svg>
